<svg xmlns="http://www.w3.org/2000/svg" viewBox="0 0 768 199.53"><defs><style>.a{fill:#676762;}.a,.b{fill-rule:evenodd;}.b{fill:#1d1d1b;}</style></defs><path class="a" d="M663.6,140.68a8.8,8.8,0,1,0,8.64,8.79A8.71,8.71,0,0,0,663.6,140.68Zm-38-100.91A26.4,26.4,0,0,0,606.09,48,27.26,27.26,0,0,0,598,67.83v64a27.2,27.2,0,0,0,8,19.78,27.27,27.27,0,0,0,38.9,0A27.13,27.13,0,0,0,653,131.8V115.43l-18,2.42v13.76a9.77,9.77,0,0,1-2.94,7.16,9.64,9.64,0,0,1-7.07,2.94,9.49,9.49,0,0,1-7-2.94,9.84,9.84,0,0,1-2.89-7.16V67.45a10,10,0,0,1,2.89-7.2,9.43,9.43,0,0,1,7-3,9.58,9.58,0,0,1,7.07,3,9.92,9.92,0,0,1,2.94,7.2V81.2l18-2.42v-11A27.44,27.44,0,0,0,645,48a26.14,26.14,0,0,0-19.47-8.23Zm-53,68.41L547.35,41H530V158.26h17.36V90.78l25.16,67.48h17.36V41H572.51ZM503,158.27h17.36V41.08H503Z"/><path class="b" d="M429.84,158.26h49.39V140.49h-32V106.2l25.67-3.44V85l-25.67,3.45V58.76h32V41H429.84ZM392.94,39.77A26.39,26.39,0,0,0,373.48,48a27.29,27.29,0,0,0-8.08,19.88v64a27.22,27.22,0,0,0,8,19.73,27.17,27.17,0,0,0,38.88.1,27.11,27.11,0,0,0,8.08-19.83V92.07l-27.64,3.71v17.74l9.64-1.3v19.42a10,10,0,0,1-10,10.07,9.51,9.51,0,0,1-7-2.94,9.84,9.84,0,0,1-2.89-7.16V67.45a10,10,0,0,1,2.89-7.2,9.43,9.43,0,0,1,7-3,9.58,9.58,0,0,1,7.07,3,9.91,9.91,0,0,1,2.93,7.2V81.2l18-2.42v-11a27.44,27.44,0,0,0-8-19.83A26.11,26.11,0,0,0,393,39.77Zm-54.49,68.41L313.29,41H295.93V158.26h17.36V90.78l25.15,67.48h17.35V41H338.44Zm-88.54,7,6.76-47.26,6.43,45.48Zm-5.08-74.1L225.28,158.27h18.07l3.86-25,18.43-2.48,4.09,27.48H288L268.7,41.08Zm-46.35,81-20.93,2.81V41.08H160.2V158.26h17.35V142.63l20.93-2.82v18.45h17.35V41.08H198.48ZM123.31,39.77A26.4,26.4,0,0,0,103.84,48a27.27,27.27,0,0,0-8.08,19.88v64a27.2,27.2,0,0,0,8,19.78,27.25,27.25,0,0,0,38.88,0,27.13,27.13,0,0,0,8.08-19.83V115.43l-18,2.42v13.76a9.8,9.8,0,0,1-2.93,7.16,9.65,9.65,0,0,1-7.07,2.94,9.47,9.47,0,0,1-7-2.94,9.88,9.88,0,0,1-2.89-7.16V67.45a10,10,0,0,1,2.89-7.2,9.43,9.43,0,0,1,7-3,9.58,9.58,0,0,1,7.07,3,10,10,0,0,1,2.93,7.2V81.2l18-2.42v-11a27.48,27.48,0,0,0-8-19.83,26.14,26.14,0,0,0-19.46-8.23Z"/></svg>