<svg xmlns="http://www.w3.org/2000/svg" viewBox="0 0 768 200"><defs><style>.a{fill:#1d1d1b;}</style></defs><path class="a" d="M551.47,135.21a18.94,18.94,0,0,1-10.6,3.59c-4.84,0-7.38-2.14-7.38-6.89V59.64c0-5,2.54-7.17,7.38-7.17a17.55,17.55,0,0,1,10.6,3.8ZM571.54,34.92H551.47v6.66c-4.6-4-10.6-8.07-18.9-8.07h-.24c-12.49,0-19.13,8.07-19.13,21.14v81.51c0,13.31,6.67,21.15,19.13,21.15h.24a27,27,0,0,0,18.9-7.84v20c0,4.29-1.78,6.66-6.23,6.66h-6.91c-4.37,0-6.23-2.37-6.23-6.66v-5.7H513.66v7.37c0,15,6.7,21.64,21.21,21.64H548c15.9,0,23.51-7.61,23.51-24.24ZM448.36,168h20.28V56.09a19.54,19.54,0,0,1,10.83-3.59c4.61,0,6.68,2.14,6.68,6.66V168h20.07V53c0-12.56-6-19.48-17.52-19.48h-.93c-8.53,0-14.28,4-19.36,8.79V34.94H448.3Zm-27.05,0h20.28V34.94H421.26Zm-.23-143h21V4.75H421ZM393.8,168h20.28V0H393.8ZM366.17,88.65h20.06V58.46q0-25-24.21-25h-8.46c-16.06,0-24.44,8.55-24.44,25.11v85.63c0,16.63,8.3,25.11,24.44,25.11h8.54c16.06,0,24.2-8.55,24.2-25.11V111H366.4v32.09c0,5-2.31,7.6-7.14,7.6h-2.79c-4.84,0-7.14-2.62-7.14-7.6V59.89c0-5,2.3-7.37,7.14-7.37H359c4.83,0,7.14,2.39,7.14,7.37ZM298.83,191.78,326.25,34.94H306.9l-12,82.51L284.53,34.94H264.3l20.92,129-5.76,27.81ZM238.18,98.65v43c0,5.71-2.76,8.33-8.07,8.33H226c-5.53-.07-8.08-2.69-8.08-8.33V28c0-5.71,2.55-8.31,8.08-8.31h3.7c5.53,0,8.07,2.62,8.07,8.32V66.78h21V26.91C258.71,9,250.18.23,232.88.23H222.51c-17.51,0-26,8.74-26,26.86V142.58c0,18.07,8.54,26.91,26,26.91h10.6c17.52,0,26.05-8.79,26.05-26.91V98.65Z"/><path class="a" d="M493.88,199.86h4.28V189.52l7.29-15.33H501L496.09,185l-4.87-10.76h-4.55L494,189.56Zm-15.48,0h12.93v-3.59H482.6V174.19h-4.22Zm-19.63,0H463v-7.38l2.37-3.58,5.93,10.92h4.82l-7.78-14.67,7.39-11h-4.88L463,186.55V174.26h-4.21Zm-16.79,0h13.91v-3.59h-9.73v-7.44h8.53v-3.59h-8.53v-7.18h9.59v-3.58H442Zm-16.56,0h13.83v-3.59h-9.73v-7.44h8.54v-3.59h-8.54v-7.18h9.59v-3.58H425.36Zm-25.84.14h4l4.32-17.78L412.15,200h4.06l6.19-25.81h-4.32l-4,18.22-4.32-18.26h-3.73l-4.29,18.26-4-18.22h-4.41Z"/></svg>