<svg xmlns="http://www.w3.org/2000/svg" viewBox="0 0 768 200"><defs><style>.a{fill:#010101;}</style></defs><path class="a" d="M49.53,40.47l-3.3,3.3V63.64H33.06l-13.19,0L10,73.51,0,83.38v33.37l10,10,9.92,9.92H59.61l3.32-3.32,3.3-3.3V43.77L62.9,40.45l-3.29-3.3H52.85ZM44.46,85.38l1.77,1.74v26l-1.61,1.64L43,116.36H23.27l-1.64-1.61L20,113.14V86.91l1.61-1.64,1.61-1.63H42.7Z"/><path class="a" d="M413.65,40.47l-3.3,3.3V86.88l0,43.12,3.32,3.17,3.35,3.19H457l9.95-10,9.92-9.92v-33l-10-10-10-10-13.11-.08-13.12-.08V43.77l-3.32-3.32-3.3-3.3h-7ZM455,85.25l1.63,1.61v26.23L455,114.73l-1.61,1.63H433.88l-1.63-1.61-1.64-1.61V86.65l1.48-1.51,1.48-1.5h19.74Z"/><path class="a" d="M238.08,40.73l-3.3,3.3v6.75l3.33,3.33,3.3,3.3h6.75l3.32-3.33,3.3-3.3V44l-3.32-3.32-3.3-3.3h-6.75Z"/><path class="a" d="M751.62,45.36a13.44,13.44,0,0,0-8.54,6.9,12.82,12.82,0,0,0,2.2,14.21A14,14,0,0,0,755,70.65a13.08,13.08,0,0,0,12.44-8.75,15.56,15.56,0,0,0,0-8.1,12.74,12.74,0,0,0-9.17-8.47A15.59,15.59,0,0,0,751.62,45.36Zm7.43,3.35a10.13,10.13,0,0,1,2.8,15.94,8.17,8.17,0,0,1-6.72,3,9.37,9.37,0,0,1-8.76-5.48c-.8-1.61-.85-1.92-.85-4.33s.08-2.78.7-4.11c1.92-4.08,5-6,9.19-5.82A7.74,7.74,0,0,1,759.05,48.71Z"/><path class="a" d="M750.92,51.35l-.86.11v13h3.12V59.48h1.14c1.59,0,2.13.55,2.83,2.86l.6,2,1.77.08c1.63.07,1.76,0,1.61-.39-.11-.26-.37-1.25-.6-2.18-.44-2-1.17-3.35-1.92-3.54-.47-.13-.44-.2.31-.54a3.37,3.37,0,0,0-.1-5.95c-.65-.34-1.56-.47-4-.49C753.15,51.25,751.36,51.28,750.92,51.35ZM756,53.8c1.09.39,1.51,1.35.94,2.2a4.06,4.06,0,0,1-3,1.15c-.73,0-.73,0-.73-1.64a5.51,5.51,0,0,1,.18-1.82C753.62,53.41,755.1,53.48,756,53.8Z"/><path class="a" d="M96.48,63.3l-2.85.11-9.92,9.92-9.95,9.92v33l9.95,9.92,9.92,9.95h20l20,0,3.35-3.33,3.33-3.32v-6.62l-3.43-3.38-3.46-3.35-18.18,0H97l-1.53-1.56L93.89,113l1.61-1.53,1.58-1.56h36.54l3.33-3.33,3.3-3.29v-20l-10.05-10L120.12,63.12l-10.39.05C104,63.2,98.07,63.28,96.48,63.3Zm21.87,21.53L120,86.31,118.41,88l-1.64,1.66H97l-1.53-1.56-1.54-1.56,1.54-1.55L97,83.38h19.71Z"/><path class="a" d="M339.66,66.42l-3.33,3.32v60l3.33,3.32,3.3,3.3h6.75L353,133l3.3-3.3V90.26l3.27-3.45,3.28-3.43h13.06l3.32,3.32,3.3,3.3v39.74l3.33,3.32,3.3,3.3h7l3.32-3.32,3.3-3.3V83.25l-9.92-9.92L383,63.41l-20-.19-20-.15Z"/><path class="a" d="M636.25,66.44l-3.32,3.41v59.89l3.32,3.32,3.3,3.3h7l3.32-3.32,3.3-3.3V90l3.32-3.32,3.3-3.3h13l3.32,3.32,3.3,3.3v39.74l3.32,3.32,3.3,3.3h7l3.2-3.19,3.17-3.17V90l3.32-3.32,3.3-3.3h13l3.32,3.32,3.3,3.3v39.74l3.32,3.32,3.3,3.3h7l3.33-3.32,3.3-3.3V83.25l-10-10L725.78,63.12H699.55l-5.09,5.09-5.07,5.07-4.91-5-4.88-5-20-.13-20-.13Z"/><path class="a" d="M173.1,63.56l-5.71.08-9.79,9.82-9.82,9.79v20.26l3.19,3.14,3.17,3.17,18.31.15,18.29.16,1.58,1.56,1.56,1.56-1.56,1.55-1.53,1.56H154.4l-3.32,3.33-3.3,3.29v6.76l3.32,3.32,3.3,3.3h39.74l10-10,9.92-9.92v-20l-3.33-3.32-3.3-3.3h-36.2l-1.71-1.61-1.72-1.58L169.39,85,171,83.38h36.38l3.33-3.27,3.3-3.28V70l-3.33-3.32-3.3-3.3-14.28,0Z"/><path class="a" d="M272.24,73.59l-9.93,9.92v33.24l9.95,10,9.92,9.92h23.43L307,138a8.13,8.13,0,0,1,1.32,1.64,11.42,11.42,0,0,1-1.48,1.69l-1.48,1.5H268.94l-3.33,3.33-3.3,3.3v7l3.2,3.19,3.17,3.17h40.25l9.95-9.95L328.8,143V83.51l-9.95-10-9.92-9.92H282.18Zm34.67,11.66,1.63,1.61v26.23l-1.61,1.64-1.61,1.63H285.58l-1.5-1.48-1.51-1.48V86.91l1.61-1.64,1.61-1.63h19.48Z"/><path class="a" d="M494.29,73.59l-9.92,9.92v33.27l9.85,9.79,9.84,9.79h27.11l10-9.76,10-9.77V83.51l-10-10-9.92-9.92h-27ZM529.1,85.38l1.76,1.74v26.23L529.25,115l-1.61,1.63H507.9L506.27,115l-1.64-1.61V86.91l1.61-1.64,1.61-1.63h19.48Z"/><path class="a" d="M568.57,73.59l-9.92,9.92v33.32l9.92,9.77,9.9,9.76h27.06l10-9.76,9.92-9.77V83.51l-9.95-10-9.92-9.92h-27ZM603.5,85.25l1.64,1.61v26.49L603.53,115l-1.61,1.63H582.18L580.55,115l-1.64-1.61V86.91l1.61-1.64,1.61-1.63h19.74Z"/><path class="a" d="M224.84,67.22l-3.3,3.3v6.75l3.32,3.33,3.3,3.3h6.62V130l3.33,3.32,3.3,3.3h6.75l3.32-3.32,3.3-3.3V70.52l-3.32-3.32-3.3-3.3h-20Z"/></svg>